<svg width="1080" height="1080" viewBox="0 0 1080 1080" fill="none" xmlns="http://www.w3.org/2000/svg">
<g clip-path="url(#clip0_5_1146)">
<path d="M5.39685 269.841C5.39685 120.812 126.209 5.22706e-06 275.238 0L404.762 6.71279e-06C553.791 1.48573e-06 674.603 120.812 674.603 269.841V404.762H809.524C958.553 404.762 1079.37 525.574 1079.37 674.603V809.524C1079.37 958.553 958.553 1079.37 809.524 1079.37L809.524 785.878C809.524 724.423 759.704 674.603 698.249 674.603H432.581C417.217 674.603 404.762 662.148 404.762 646.785V381.116C404.762 319.661 354.943 269.841 293.487 269.841L5.39685 269.841Z" fill="#815EE8"/>
<path d="M269.841 432.581C269.841 417.217 257.386 404.762 242.023 404.762L0 404.762L8.10979e-07 809.524C-4.41608e-06 958.553 120.812 1079.37 269.841 1079.37H674.603V842.906C674.603 824.47 659.657 809.524 641.221 809.524H381.116C319.661 809.524 269.841 759.704 269.841 698.249V432.581Z" fill="#815EE8"/>
</g>
<defs>
<clipPath id="clip0_5_1146">
<rect width="1080" height="1080" fill="white"/>
</clipPath>
</defs>
</svg>
