<svg width="1920" height="494" viewBox="0 0 1920 494" fill="none" xmlns="http://www.w3.org/2000/svg">
<g clip-path="url(#clip0_5_1123)">
<path d="M1871.38 413.419C1848.66 413.419 1831.95 406.87 1821.26 393.772C1810.56 380.674 1805.22 363.833 1805.22 343.25V249.824H1762.71C1762.71 236.191 1765.25 226.033 1770.33 219.351C1775.41 212.668 1782.1 209.326 1790.38 209.326H1806.02V177.65C1806.02 166.155 1810.43 158.002 1819.25 153.191C1828.07 148.112 1841.44 145.572 1859.35 145.572V209.326H1912.68C1912.68 223.761 1910 234.186 1904.66 240.602C1899.31 246.75 1890.49 249.824 1878.19 249.824H1860.15V341.245C1860.15 350.066 1861.89 356.482 1865.36 360.492C1868.84 364.234 1874.85 366.105 1883.41 366.105C1892.76 366.105 1902.39 363.432 1912.28 358.086C1915.22 360.759 1917.49 364.1 1919.09 368.11C1920.96 372.12 1921.9 376.129 1921.9 380.139C1921.9 385.485 1920.03 390.698 1916.29 395.777C1912.54 400.856 1906.8 405.133 1899.04 408.608C1891.56 411.816 1882.34 413.419 1871.38 413.419Z" fill="#27262B"/>
<path d="M1658.03 413.419C1640.39 413.419 1624.35 410.211 1609.92 403.795C1595.48 397.38 1584.12 388.559 1575.84 377.332C1567.55 365.837 1563.41 352.872 1563.41 338.438V285.109C1563.41 270.406 1567.42 257.041 1575.44 245.012C1583.45 232.715 1594.68 223.092 1609.12 216.142C1623.55 209.192 1639.86 205.717 1658.03 205.717C1676.21 205.717 1692.52 209.192 1706.95 216.142C1721.39 223.092 1732.62 232.715 1740.63 245.012C1748.65 257.041 1752.66 270.406 1752.66 285.109V338.438C1752.66 352.872 1748.52 365.837 1740.23 377.332C1731.95 388.559 1720.59 397.38 1706.15 403.795C1691.72 410.211 1675.68 413.419 1658.03 413.419ZM1658.03 366.104C1670.6 366.104 1680.36 363.298 1687.31 357.684C1694.26 352.07 1697.73 344.318 1697.73 334.428V287.915C1697.73 277.49 1694.12 269.07 1686.9 262.654C1679.95 256.239 1670.33 253.031 1658.03 253.031C1645.74 253.031 1635.98 256.239 1628.76 262.654C1621.81 269.07 1618.34 277.49 1618.34 287.915V334.428C1618.34 344.318 1621.81 352.07 1628.76 357.684C1635.71 363.298 1645.47 366.104 1658.03 366.104Z" fill="#27262B"/>
<path d="M1339.92 409.809C1331.9 409.809 1324.95 407.27 1319.07 402.191C1313.19 396.844 1310.25 390.429 1310.25 382.944V155.996C1310.25 148.511 1313.05 142.229 1318.67 137.15C1324.55 131.804 1331.63 129.131 1339.92 129.131H1446.17C1472.91 129.131 1494.16 136.348 1509.93 150.783C1525.97 165.218 1533.99 184.598 1533.99 208.924C1533.99 219.883 1530.91 230.442 1524.76 240.6C1518.88 250.491 1511 258.377 1501.11 264.257V265.861C1514.74 270.673 1525.57 278.559 1533.59 289.518C1541.61 300.478 1545.61 312.641 1545.61 326.007C1545.61 342.313 1541.74 356.881 1533.99 369.712C1526.23 382.276 1515.41 392.166 1501.51 399.384C1487.61 406.334 1471.7 409.809 1453.79 409.809H1339.92ZM1445.37 245.011C1453.66 245.011 1460.61 241.803 1466.22 235.388C1472.1 228.705 1475.04 220.685 1475.04 211.329C1475.04 201.172 1472.37 193.286 1467.02 187.672C1461.68 181.791 1454.46 178.851 1445.37 178.851H1367.58V245.011H1445.37ZM1453.39 360.089C1463.55 360.089 1471.57 357.149 1477.45 351.268C1483.6 345.119 1486.67 336.966 1486.67 326.809C1486.67 316.383 1483.73 308.364 1477.85 302.75C1471.97 296.87 1463.82 293.929 1453.39 293.929H1367.58V360.089H1453.39Z" fill="#27262B"/>
<path d="M1158.71 413.419C1145.61 413.419 1133.31 410.879 1121.82 405.8C1110.59 400.454 1101.5 392.836 1094.55 382.945C1087.6 372.787 1084.12 360.624 1084.12 346.457C1084.12 332.289 1087.87 320.127 1095.35 309.969C1102.84 299.544 1112.73 291.658 1125.02 286.312C1137.59 280.965 1151.22 278.292 1165.92 278.292C1178.22 278.292 1189.05 280.163 1198.4 283.906C1208.02 287.648 1216.98 293.128 1225.27 300.345L1227.27 297.94C1221.66 292.861 1217.25 289.252 1214.04 287.113V281.901C1214.04 271.743 1210.3 263.724 1202.81 257.843C1195.59 251.695 1185.3 248.62 1171.94 248.62C1160.18 248.62 1149.75 250.759 1140.66 255.036C1131.57 259.313 1124.22 265.595 1118.61 273.882C1112.19 272.278 1106.71 269.337 1102.17 265.06C1097.89 260.516 1095.75 255.571 1095.75 250.224C1095.75 241.938 1099.36 234.453 1106.58 227.77C1113.8 220.82 1123.55 215.474 1135.85 211.731C1148.41 207.722 1162.18 205.717 1177.15 205.717C1206.29 205.717 1228.74 212.4 1244.51 225.765C1260.28 239.131 1268.17 257.308 1268.17 280.297V377.732C1268.17 390.296 1264.03 399.385 1255.74 404.998C1247.72 410.612 1234.89 413.419 1217.25 413.419V397.781C1221.26 394.039 1224.46 390.697 1226.87 387.757L1224.87 385.752C1216.04 394.84 1206.82 401.791 1197.2 406.602C1187.58 411.147 1174.74 413.419 1158.71 413.419ZM1173.94 374.124C1186.77 374.124 1196.8 371.718 1204.01 366.906C1211.23 362.095 1214.84 355.145 1214.84 346.056C1214.84 337.235 1211.1 330.284 1203.61 325.206C1196.4 320.127 1186.51 317.587 1173.94 317.587C1162.71 317.587 1153.76 320.127 1147.08 325.206C1140.66 330.284 1137.45 337.235 1137.45 346.056C1137.45 355.145 1140.66 362.095 1147.08 366.906C1153.76 371.718 1162.71 374.124 1173.94 374.124Z" fill="#27262B"/>
<path d="M953.919 493.612C937.613 493.612 923.178 491.34 910.614 486.796C898.05 482.519 888.293 476.638 881.343 469.153C874.66 461.669 871.319 453.382 871.319 444.293C871.319 434.67 874.66 427.854 881.343 423.844C888.293 419.834 898.05 417.829 910.614 417.829C913.287 439.482 927.722 450.308 953.919 450.308C968.888 450.308 979.313 446.565 985.194 439.081C991.342 431.863 994.416 421.705 994.416 408.607V398.182C998.961 394.974 1001.9 392.301 1003.24 390.163L1001.63 388.158C994.684 394.841 985.328 400.053 973.566 403.795C962.072 407.538 951.646 409.409 942.291 409.409C927.588 409.409 914.223 406.335 902.194 400.187C890.432 394.039 881.076 385.485 874.126 374.525C867.443 363.298 864.102 350.734 864.102 336.834V278.693C864.102 265.328 867.577 253.165 874.527 242.205C881.744 230.978 891.234 222.157 902.996 215.741C914.757 209.058 927.054 205.717 939.885 205.717C954.587 205.717 967.017 208.657 977.175 214.538C987.6 220.152 996.956 228.572 1005.24 239.799L1007.25 238.195C1005.91 235.789 1003.37 232.314 999.629 227.77C999.629 213.068 1016.47 205.717 1050.15 205.717V400.187C1050.15 418.097 1046.01 434.135 1037.72 448.303C1029.43 462.738 1017.94 473.831 1003.24 481.583C988.536 489.603 972.096 493.612 953.919 493.612ZM957.126 362.496C968.353 362.496 977.576 359.823 984.793 354.476C992.011 348.863 995.619 342.18 995.619 334.428V280.698C995.619 272.679 992.011 265.996 984.793 260.65C977.576 255.303 968.353 252.63 957.126 252.63C944.83 252.63 935.34 255.303 928.658 260.65C922.242 265.728 919.034 273.08 919.034 282.703V332.824C919.034 342.18 922.242 349.531 928.658 354.877C935.073 359.956 944.563 362.496 957.126 362.496Z" fill="#27262B"/>
<path d="M745.748 413.419C729.174 413.419 713.804 410.077 699.636 403.394C685.736 396.712 674.643 387.623 666.356 376.129C658.069 364.634 653.926 351.803 653.926 337.636V286.312C653.926 271.342 658.069 257.709 666.356 245.413C674.91 232.849 686.271 223.092 700.438 216.142C714.606 209.192 729.843 205.717 746.149 205.717C762.187 205.717 776.89 209.058 790.255 215.741C803.888 222.157 814.581 231.379 822.333 243.408C830.085 255.17 833.961 268.535 833.961 283.505V305.157C833.961 311.573 831.555 317.052 826.743 321.597C821.932 325.874 815.784 328.012 808.299 328.012H707.255V333.626C707.255 344.318 710.462 353.14 716.878 360.09C723.561 366.773 733.318 370.114 746.149 370.114C758.712 370.114 767.935 367.441 773.816 362.095C779.696 356.481 782.637 349.531 782.637 341.244C787.983 340.71 791.993 340.442 794.666 340.442C805.626 340.442 814.046 342.715 819.927 347.259C825.808 351.803 828.748 358.486 828.748 367.307C828.748 374.525 825.14 381.742 817.922 388.96C810.705 396.177 800.68 402.058 787.849 406.602C775.286 411.147 761.252 413.419 745.748 413.419ZM784.241 289.118V283.505C784.241 272.812 780.632 264.392 773.415 258.244C766.464 251.828 757.242 248.62 745.748 248.62C734.253 248.62 724.897 251.828 717.68 258.244C710.73 264.392 707.255 272.812 707.255 283.505V289.118H784.241Z" fill="#27262B"/>
<path d="M469.089 409.81C460.535 409.81 453.184 406.736 447.036 400.588C441.155 394.44 438.215 387.089 438.215 378.535V168.026C438.215 153.591 443.026 142.899 452.65 135.949C462.273 128.999 477.109 125.523 497.157 125.523V358.887H600.607C613.973 358.887 624.131 363.298 631.081 372.119C638.298 380.673 641.907 393.237 641.907 409.81H469.089Z" fill="#27262B"/>
<path d="M1.66468 163.265C1.66468 117.296 38.9296 80.0312 84.8984 80.0312L124.851 80.0313C170.819 80.0313 208.084 117.296 208.084 163.265V204.882H249.701C295.67 204.882 332.935 242.147 332.935 288.116V329.732C332.935 375.701 295.67 412.966 249.701 412.966V322.439C249.701 303.483 234.334 288.116 215.378 288.116H133.431C128.692 288.116 124.851 284.274 124.851 279.535V197.588C124.851 178.632 109.484 163.265 90.5274 163.265L1.66468 163.265Z" fill="#815EE8"/>
<path d="M83.2337 213.463C83.2337 208.724 79.392 204.882 74.6529 204.882H0L4.62916e-06 329.732C4.62916e-06 375.701 37.265 412.966 83.2337 412.966H208.084L208.084 340.029C208.084 334.342 203.474 329.732 197.787 329.732H117.557C98.6007 329.732 83.2337 314.365 83.2337 295.409V213.463Z" fill="#815EE8"/>
</g>
<defs>
<clipPath id="clip0_5_1123">
<rect width="1920" height="494" fill="white"/>
</clipPath>
</defs>
</svg>
