<svg width="1920" height="1080" viewBox="0 0 1920 1080" fill="none" xmlns="http://www.w3.org/2000/svg">
<g clip-path="url(#clip0_5_1111)">
<path d="M1748.47 987.391C1722.59 987.391 1703.56 979.932 1691.38 965.013C1679.21 950.095 1673.12 930.914 1673.12 907.47V801.061H1624.71C1624.71 785.533 1627.6 773.963 1633.38 766.352C1639.17 758.74 1646.78 754.935 1656.22 754.935H1674.03V718.856C1674.03 705.764 1679.05 696.478 1689.1 690.997C1699.15 685.213 1714.37 682.32 1734.77 682.32V754.935H1795.51C1795.51 771.375 1792.47 783.249 1786.38 790.557C1780.29 797.559 1770.24 801.061 1756.23 801.061H1735.68V905.187C1735.68 915.234 1737.66 922.541 1741.62 927.108C1745.58 931.37 1752.43 933.501 1762.17 933.501C1772.83 933.501 1783.79 930.457 1795.05 924.368C1798.4 927.412 1800.99 931.218 1802.82 935.785C1804.95 940.352 1806.01 944.919 1806.01 949.486C1806.01 955.575 1803.88 961.512 1799.62 967.297C1795.36 973.082 1788.81 977.953 1779.98 981.911C1771.46 985.564 1760.95 987.391 1748.47 987.391Z" fill="#27262B"/>
<path d="M1505.48 987.389C1485.38 987.389 1467.12 983.736 1450.68 976.429C1434.23 969.122 1421.3 959.074 1411.86 946.287C1402.42 933.195 1397.7 918.429 1397.7 901.988V841.247C1397.7 824.502 1402.27 809.279 1411.4 795.578C1420.53 781.573 1433.32 770.612 1449.76 762.696C1466.2 754.78 1484.78 750.822 1505.48 750.822C1526.18 750.822 1544.75 754.78 1561.2 762.696C1577.64 770.612 1590.42 781.573 1599.56 795.578C1608.69 809.279 1613.26 824.502 1613.26 841.247V901.988C1613.26 918.429 1608.54 933.195 1599.1 946.287C1589.66 959.074 1576.72 969.122 1560.28 976.429C1543.84 983.736 1525.57 987.389 1505.48 987.389ZM1505.48 933.5C1519.79 933.5 1530.9 930.303 1538.82 923.909C1546.73 917.515 1550.69 908.686 1550.69 897.421V844.444C1550.69 832.57 1546.58 822.98 1538.36 815.673C1530.44 808.366 1519.48 804.712 1505.48 804.712C1491.47 804.712 1480.36 808.366 1472.14 815.673C1464.22 822.98 1460.27 832.57 1460.27 844.444V897.421C1460.27 908.686 1464.22 917.515 1472.14 923.909C1480.06 930.303 1491.17 933.5 1505.48 933.5Z" fill="#27262B"/>
<path d="M1143.15 983.279C1134.02 983.279 1126.1 980.386 1119.41 974.602C1112.71 968.512 1109.36 961.205 1109.36 952.68V694.192C1109.36 685.667 1112.56 678.512 1118.95 672.728C1125.65 666.638 1133.72 663.594 1143.15 663.594H1264.18C1294.62 663.594 1318.83 671.814 1336.79 688.255C1355.06 704.696 1364.19 726.77 1364.19 754.476C1364.19 766.959 1360.69 778.985 1353.69 790.554C1346.99 801.82 1338.01 810.801 1326.75 817.499V819.326C1342.27 824.806 1354.6 833.788 1363.74 846.271C1372.87 858.754 1377.44 872.607 1377.44 887.83C1377.44 906.402 1373.02 922.995 1364.19 937.61C1355.36 951.919 1343.03 963.184 1327.2 971.405C1311.37 979.321 1293.25 983.279 1272.86 983.279H1143.15ZM1263.26 795.578C1272.7 795.578 1280.62 791.925 1287.01 784.617C1293.71 777.006 1297.06 767.872 1297.06 757.216C1297.06 745.646 1294.02 736.665 1287.93 730.271C1281.84 723.573 1273.62 720.224 1263.26 720.224H1174.67V795.578H1263.26ZM1272.4 926.649C1283.97 926.649 1293.1 923.3 1299.8 916.602C1306.8 909.599 1310.3 900.313 1310.3 888.743C1310.3 876.869 1306.96 867.736 1300.26 861.342C1293.56 854.644 1284.27 851.295 1272.4 851.295H1174.67V926.649H1272.4Z" fill="#27262B"/>
<path d="M936.754 987.389C921.835 987.389 907.83 984.497 894.738 978.712C881.95 972.623 871.599 963.946 863.683 952.681C855.767 941.111 851.809 927.258 851.809 911.122C851.809 894.985 856.071 881.132 864.596 869.562C873.121 857.688 884.386 848.707 898.391 842.618C912.701 836.528 928.229 833.484 944.974 833.484C958.979 833.484 971.31 835.615 981.966 839.877C992.927 844.14 1003.13 850.381 1012.56 858.602L1014.85 855.862C1008.45 850.077 1003.43 845.967 999.777 843.531V837.594C999.777 826.024 995.515 816.891 986.99 810.192C978.769 803.19 967.047 799.688 951.824 799.688C938.428 799.688 926.554 802.124 916.202 806.996C905.851 811.867 897.478 819.022 891.084 828.46C883.777 826.633 877.536 823.284 872.36 818.413C867.488 813.237 865.053 807.604 865.053 801.515C865.053 792.077 869.163 783.552 877.383 775.94C885.604 768.024 896.717 761.935 910.722 757.673C925.032 753.106 940.712 750.822 957.761 750.822C990.948 750.822 1016.52 758.434 1034.49 773.657C1052.45 788.88 1061.43 809.583 1061.43 835.767V946.744C1061.43 961.053 1056.71 971.405 1047.27 977.799C1038.14 984.192 1023.53 987.389 1003.43 987.389V969.578C1008 965.316 1011.65 961.51 1014.39 958.161L1012.11 955.877C1002.06 966.229 991.557 974.145 980.596 979.625C969.635 984.801 955.021 987.389 936.754 987.389ZM954.108 942.633C968.722 942.633 980.139 939.893 988.36 934.413C996.58 928.933 1000.69 921.017 1000.69 910.665C1000.69 900.618 996.428 892.702 987.903 886.917C979.683 881.132 968.418 878.24 954.108 878.24C941.32 878.24 931.121 881.132 923.509 886.917C916.202 892.702 912.549 900.618 912.549 910.665C912.549 921.017 916.202 928.933 923.509 934.413C931.121 939.893 941.32 942.633 954.108 942.633Z" fill="#27262B"/>
<path d="M703.506 1078.73C684.934 1078.73 668.493 1076.14 654.183 1070.96C639.874 1066.09 628.761 1059.39 620.845 1050.87C613.233 1042.34 609.427 1032.91 609.427 1022.55C609.427 1011.59 613.233 1003.83 620.845 999.263C628.761 994.696 639.874 992.413 654.183 992.413C657.228 1017.07 673.669 1029.41 703.506 1029.41C720.556 1029.41 732.43 1025.14 739.128 1016.62C746.131 1008.4 749.632 996.828 749.632 981.909V970.035C754.808 966.381 758.157 963.337 759.68 960.901L757.853 958.618C749.937 966.229 739.281 972.166 725.884 976.429C712.792 980.691 700.918 982.822 690.262 982.822C673.517 982.822 658.294 979.321 644.593 972.318C631.197 965.316 620.54 955.573 612.624 943.09C605.013 930.303 601.207 915.993 601.207 900.161V833.94C601.207 818.717 605.165 804.864 613.081 792.381C621.302 779.594 632.11 769.547 645.506 762.24C658.903 754.628 672.908 750.822 687.522 750.822C704.267 750.822 718.425 754.171 729.994 760.87C741.868 767.263 752.525 776.854 761.963 789.641L764.246 787.814C762.724 785.074 759.832 781.116 755.569 775.94C755.569 759.195 774.75 750.822 813.113 750.822V972.318C813.113 992.717 808.393 1010.99 798.955 1027.12C789.517 1043.56 776.425 1056.2 759.68 1065.03C742.934 1074.16 724.21 1078.73 703.506 1078.73ZM707.16 929.389C719.947 929.389 730.451 926.345 738.672 920.255C746.892 913.862 751.002 906.25 751.002 897.421V836.224C751.002 827.09 746.892 819.478 738.672 813.389C730.451 807.3 719.947 804.255 707.16 804.255C693.155 804.255 682.346 807.3 674.735 813.389C667.427 819.174 663.774 827.547 663.774 838.507V895.594C663.774 906.25 667.427 914.623 674.735 920.712C682.042 926.497 692.85 929.389 707.16 929.389Z" fill="#27262B"/>
<path d="M466.411 987.389C447.534 987.389 430.028 983.583 413.891 975.972C398.059 968.36 385.424 958.009 375.986 944.917C366.547 931.825 361.828 917.211 361.828 901.074V842.618C361.828 825.568 366.547 810.04 375.986 796.035C385.728 781.725 398.668 770.612 414.805 762.696C430.941 754.78 448.295 750.822 466.868 750.822C485.135 750.822 501.881 754.628 517.104 762.24C532.631 769.547 544.81 780.051 553.639 793.751C562.469 807.148 566.883 822.371 566.883 839.421V864.082C566.883 871.389 564.143 877.631 558.663 882.807C553.183 887.678 546.18 890.114 537.655 890.114H422.568V896.507C422.568 908.686 426.222 918.733 433.529 926.649C441.14 934.261 452.253 938.066 466.868 938.066C481.177 938.066 491.681 935.022 498.379 928.933C505.078 922.539 508.427 914.623 508.427 905.185C514.516 904.576 519.083 904.271 522.127 904.271C534.61 904.271 544.201 906.859 550.899 912.035C557.597 917.211 560.946 924.822 560.946 934.87C560.946 943.09 556.836 951.311 548.616 959.531C540.395 967.751 528.978 974.45 514.364 979.625C500.054 984.801 484.07 987.389 466.411 987.389ZM510.253 845.814V839.421C510.253 827.242 506.143 817.652 497.923 810.649C490.007 803.342 479.503 799.688 466.411 799.688C453.319 799.688 442.663 803.342 434.442 810.649C426.526 817.652 422.568 827.242 422.568 839.421V845.814H510.253Z" fill="#27262B"/>
<path d="M151.302 983.28C141.559 983.28 133.187 979.778 126.184 972.776C119.486 965.773 116.137 957.4 116.137 947.658V707.894C116.137 691.453 121.617 679.274 132.578 671.358C143.538 663.442 160.436 659.484 183.271 659.484V925.28H301.097C316.32 925.28 327.89 930.303 335.806 940.351C344.027 950.093 348.137 964.403 348.137 983.28H151.302Z" fill="#27262B"/>
<path d="M702.837 129.542C702.837 57.9978 760.835 0 832.379 0L894.559 5.40348e-06C966.103 5.40348e-06 1024.1 57.9977 1024.1 129.542V194.313H1088.87C1160.42 194.313 1218.41 252.31 1218.41 323.854V388.625C1218.41 460.169 1160.42 518.167 1088.87 518.167V377.274C1088.87 347.771 1064.95 323.854 1035.45 323.854H907.913C900.538 323.854 894.559 317.875 894.559 310.499V182.961C894.559 153.458 870.642 129.542 841.139 129.542L702.837 129.542Z" fill="#815EE8"/>
<path d="M829.788 207.667C829.788 200.292 823.809 194.313 816.433 194.313H700.246L700.246 388.625C700.246 460.169 758.244 518.167 829.788 518.167H1024.1L1024.1 404.651C1024.1 395.8 1016.93 388.625 1008.07 388.625H883.207C853.704 388.625 829.788 364.709 829.788 335.206V207.667Z" fill="#815EE8"/>
</g>
<defs>
<clipPath id="clip0_5_1111">
<rect width="1920" height="1080" fill="white"/>
</clipPath>
</defs>
</svg>
