<svg width="1920" height="1080" viewBox="0 0 1920 1080" fill="none" xmlns="http://www.w3.org/2000/svg">
<path d="M1747.97 987.391C1722.09 987.391 1703.06 979.932 1690.88 965.013C1678.7 950.095 1672.61 930.914 1672.61 907.47V801.061H1624.2C1624.2 785.533 1627.1 773.963 1632.88 766.352C1638.67 758.74 1646.28 754.935 1655.71 754.935H1673.53V718.856C1673.53 705.764 1678.55 696.478 1688.6 690.997C1698.64 685.213 1713.87 682.32 1734.27 682.32V754.935H1795.01C1795.01 771.375 1791.96 783.249 1785.87 790.557C1779.78 797.559 1769.74 801.061 1755.73 801.061H1735.18V905.187C1735.18 915.234 1737.16 922.541 1741.12 927.108C1745.07 931.37 1751.92 933.501 1761.67 933.501C1772.32 933.501 1783.28 930.457 1794.55 924.368C1797.9 927.412 1800.49 931.218 1802.31 935.785C1804.44 940.352 1805.51 944.919 1805.51 949.486C1805.51 955.575 1803.38 961.512 1799.12 967.297C1794.85 973.082 1788.31 977.953 1779.48 981.911C1770.95 985.564 1760.45 987.391 1747.97 987.391Z" fill="#DFFBFA"/>
<path d="M1504.97 987.389C1484.88 987.389 1466.61 983.736 1450.17 976.429C1433.73 969.122 1420.79 959.074 1411.35 946.287C1401.91 933.195 1397.2 918.429 1397.2 901.988V841.247C1397.2 824.502 1401.76 809.279 1410.9 795.578C1420.03 781.573 1432.82 770.612 1449.26 762.696C1465.7 754.78 1484.27 750.822 1504.97 750.822C1525.68 750.822 1544.25 754.78 1560.69 762.696C1577.13 770.612 1589.92 781.573 1599.05 795.578C1608.19 809.279 1612.75 824.502 1612.75 841.247V901.988C1612.75 918.429 1608.04 933.195 1598.6 946.287C1589.16 959.074 1576.22 969.122 1559.78 976.429C1543.34 983.736 1525.07 987.389 1504.97 987.389ZM1504.97 933.5C1519.28 933.5 1530.4 930.303 1538.31 923.909C1546.23 917.515 1550.19 908.686 1550.19 897.421V844.444C1550.19 832.57 1546.08 822.98 1537.86 815.673C1529.94 808.366 1518.98 804.712 1504.97 804.712C1490.97 804.712 1479.86 808.366 1471.64 815.673C1463.72 822.98 1459.76 832.57 1459.76 844.444V897.421C1459.76 908.686 1463.72 917.515 1471.64 923.909C1479.55 930.303 1490.67 933.5 1504.97 933.5Z" fill="#DFFBFA"/>
<path d="M1142.65 983.279C1133.52 983.279 1125.6 980.386 1118.9 974.602C1112.2 968.512 1108.86 961.205 1108.86 952.68V694.192C1108.86 685.667 1112.05 678.512 1118.45 672.728C1125.14 666.638 1133.21 663.594 1142.65 663.594H1263.67C1294.12 663.594 1318.33 671.814 1336.29 688.255C1354.56 704.696 1363.69 726.77 1363.69 754.476C1363.69 766.959 1360.19 778.985 1353.19 790.554C1346.49 801.82 1337.51 810.801 1326.24 817.499V819.326C1341.77 824.806 1354.1 833.788 1363.23 846.271C1372.37 858.754 1376.93 872.607 1376.93 887.83C1376.93 906.402 1372.52 922.995 1363.69 937.61C1354.86 951.919 1342.53 963.184 1326.7 971.405C1310.87 979.321 1292.75 983.279 1272.35 983.279H1142.65ZM1262.76 795.578C1272.2 795.578 1280.12 791.925 1286.51 784.617C1293.21 777.006 1296.56 767.872 1296.56 757.216C1296.56 745.646 1293.51 736.665 1287.42 730.271C1281.33 723.573 1273.11 720.224 1262.76 720.224H1174.16V795.578H1262.76ZM1271.89 926.649C1283.46 926.649 1292.6 923.3 1299.3 916.602C1306.3 909.599 1309.8 900.313 1309.8 888.743C1309.8 876.869 1306.45 867.736 1299.75 861.342C1293.05 854.644 1283.77 851.295 1271.89 851.295H1174.16V926.649H1271.89Z" fill="#DFFBFA"/>
<path d="M936.25 987.389C921.331 987.389 907.326 984.497 894.234 978.712C881.446 972.623 871.095 963.946 863.179 952.681C855.263 941.111 851.305 927.258 851.305 911.122C851.305 894.985 855.567 881.132 864.092 869.562C872.617 857.688 883.882 848.707 897.887 842.618C912.197 836.528 927.725 833.484 944.47 833.484C958.475 833.484 970.806 835.615 981.462 839.877C992.423 844.14 1002.62 850.381 1012.06 858.602L1014.34 855.862C1007.95 850.077 1002.93 845.967 999.273 843.531V837.594C999.273 826.024 995.011 816.891 986.486 810.192C978.265 803.19 966.544 799.688 951.32 799.688C937.924 799.688 926.05 802.124 915.698 806.996C905.347 811.867 896.974 819.022 890.58 828.46C883.273 826.633 877.032 823.284 871.856 818.413C866.984 813.237 864.549 807.604 864.549 801.515C864.549 792.077 868.659 783.552 876.88 775.94C885.1 768.024 896.213 761.935 910.218 757.673C924.528 753.106 940.208 750.822 957.257 750.822C990.444 750.822 1016.02 758.434 1033.98 773.657C1051.95 788.88 1060.93 809.583 1060.93 835.767V946.744C1060.93 961.053 1056.21 971.405 1046.77 977.799C1037.64 984.192 1023.02 987.389 1002.93 987.389V969.578C1007.49 965.316 1011.15 961.51 1013.89 958.161L1011.6 955.877C1001.56 966.229 991.053 974.145 980.092 979.625C969.132 984.801 954.517 987.389 936.25 987.389ZM953.604 942.633C968.218 942.633 979.635 939.893 987.856 934.413C996.076 928.933 1000.19 921.017 1000.19 910.665C1000.19 900.618 995.924 892.702 987.399 886.917C979.179 881.132 967.914 878.24 953.604 878.24C940.817 878.24 930.617 881.132 923.006 886.917C915.698 892.702 912.045 900.618 912.045 910.665C912.045 921.017 915.698 928.933 923.006 934.413C930.617 939.893 940.817 942.633 953.604 942.633Z" fill="#DFFBFA"/>
<path d="M703.002 1078.73C684.43 1078.73 667.989 1076.14 653.679 1070.96C639.37 1066.09 628.257 1059.39 620.341 1050.87C612.729 1042.34 608.924 1032.91 608.924 1022.55C608.924 1011.59 612.729 1003.83 620.341 999.263C628.257 994.696 639.37 992.413 653.679 992.413C656.724 1017.07 673.165 1029.41 703.002 1029.41C720.052 1029.41 731.926 1025.14 738.624 1016.62C745.627 1008.4 749.128 996.828 749.128 981.909V970.035C754.304 966.381 757.653 963.337 759.176 960.901L757.349 958.618C749.433 966.229 738.777 972.166 725.38 976.429C712.288 980.691 700.414 982.822 689.758 982.822C673.013 982.822 657.79 979.321 644.089 972.318C630.693 965.316 620.036 955.573 612.12 943.09C604.509 930.303 600.703 915.993 600.703 900.161V833.94C600.703 818.717 604.661 804.864 612.577 792.381C620.798 779.594 631.606 769.547 645.002 762.24C658.399 754.628 672.404 750.822 687.018 750.822C703.763 750.822 717.921 754.171 729.491 760.87C741.365 767.263 752.021 776.854 761.459 789.641L763.743 787.814C762.22 785.074 759.328 781.116 755.065 775.94C755.065 759.195 774.246 750.822 812.609 750.822V972.318C812.609 992.717 807.89 1010.99 798.451 1027.12C789.013 1043.56 775.921 1056.2 759.176 1065.03C742.43 1074.16 723.706 1078.73 703.002 1078.73ZM706.656 929.389C719.443 929.389 729.947 926.345 738.168 920.255C746.388 913.862 750.498 906.25 750.498 897.421V836.224C750.498 827.09 746.388 819.478 738.168 813.389C729.947 807.3 719.443 804.255 706.656 804.255C692.651 804.255 681.842 807.3 674.231 813.389C666.924 819.174 663.27 827.547 663.27 838.507V895.594C663.27 906.25 666.924 914.623 674.231 920.712C681.538 926.497 692.346 929.389 706.656 929.389Z" fill="#DFFBFA"/>
<path d="M465.907 987.389C447.03 987.389 429.524 983.583 413.387 975.972C397.555 968.36 384.92 958.009 375.482 944.917C366.043 931.825 361.324 917.211 361.324 901.074V842.618C361.324 825.568 366.043 810.04 375.482 796.035C385.224 781.725 398.164 770.612 414.301 762.696C430.437 754.78 447.791 750.822 466.364 750.822C484.631 750.822 501.377 754.628 516.6 762.24C532.127 769.547 544.306 780.051 553.135 793.751C561.965 807.148 566.379 822.371 566.379 839.421V864.082C566.379 871.389 563.639 877.631 558.159 882.807C552.679 887.678 545.676 890.114 537.151 890.114H422.064V896.507C422.064 908.686 425.718 918.733 433.025 926.649C440.637 934.261 451.749 938.066 466.364 938.066C480.673 938.066 491.177 935.022 497.875 928.933C504.574 922.539 507.923 914.623 507.923 905.185C514.012 904.576 518.579 904.271 521.623 904.271C534.106 904.271 543.697 906.859 550.395 912.035C557.093 917.211 560.442 924.822 560.442 934.87C560.442 943.09 556.332 951.311 548.112 959.531C539.891 967.751 528.474 974.45 513.86 979.625C499.55 984.801 483.566 987.389 465.907 987.389ZM509.749 845.814V839.421C509.749 827.242 505.639 817.652 497.419 810.649C489.503 803.342 478.999 799.688 465.907 799.688C452.815 799.688 442.159 803.342 433.938 810.649C426.022 817.652 422.064 827.242 422.064 839.421V845.814H509.749Z" fill="#DFFBFA"/>
<path d="M150.798 983.28C141.055 983.28 132.683 979.778 125.68 972.776C118.982 965.773 115.633 957.4 115.633 947.658V707.894C115.633 691.453 121.113 679.274 132.074 671.358C143.034 663.442 159.932 659.484 182.767 659.484V925.28H300.593C315.817 925.28 327.386 930.303 335.302 940.351C343.523 950.093 347.633 964.403 347.633 983.28H150.798Z" fill="#DFFBFA"/>
<path d="M702.333 129.542C702.333 57.9978 760.331 0 831.875 0L894.055 5.40348e-06C965.599 5.40348e-06 1023.6 57.9977 1023.6 129.542V194.313H1088.37C1159.91 194.313 1217.91 252.31 1217.91 323.854V388.625C1217.91 460.169 1159.91 518.167 1088.37 518.167V377.274C1088.37 347.771 1064.45 323.854 1034.95 323.854H907.41C900.034 323.854 894.055 317.875 894.055 310.499V182.961C894.055 153.458 870.138 129.542 840.636 129.542L702.333 129.542Z" fill="#815EE8"/>
<path d="M829.284 207.667C829.284 200.292 823.305 194.313 815.929 194.313H699.742L699.742 388.625C699.742 460.169 757.74 518.167 829.284 518.167H1023.6L1023.6 404.651C1023.6 395.8 1016.42 388.625 1007.57 388.625H882.703C853.201 388.625 829.284 364.709 829.284 335.206V207.667Z" fill="#815EE8"/>
</svg>
