<svg width="1920" height="588" viewBox="0 0 1920 588" fill="none" xmlns="http://www.w3.org/2000/svg">
<g clip-path="url(#clip0_5_1172)">
<path d="M1856.82 480.294C1827.39 480.294 1805.74 471.808 1791.89 454.838C1778.03 437.868 1771.11 416.049 1771.11 389.381V268.338H1716.04C1716.04 250.675 1719.33 237.514 1725.91 228.856C1732.49 220.197 1741.15 215.868 1751.88 215.868H1772.15V174.828C1772.15 159.935 1777.86 149.372 1789.29 143.138C1800.72 136.558 1818.03 133.268 1841.24 133.268V215.868H1910.33C1910.33 234.57 1906.87 248.077 1899.94 256.389C1893.02 264.355 1881.59 268.338 1865.66 268.338H1842.28V386.784C1842.28 398.213 1844.53 406.525 1849.03 411.72C1853.53 416.568 1861.33 418.993 1872.41 418.993C1884.53 418.993 1897 415.529 1909.81 408.603C1913.62 412.066 1916.57 416.395 1918.64 421.59C1921.07 426.785 1922.28 431.98 1922.28 437.175C1922.28 444.102 1919.86 450.855 1915.01 457.436C1910.16 464.016 1902.71 469.557 1892.67 474.06C1882.97 478.216 1871.02 480.294 1856.82 480.294Z" fill="#DFFBFA"/>
<path d="M1580.41 480.29C1557.55 480.29 1536.77 476.134 1518.07 467.822C1499.37 459.51 1484.65 448.081 1473.91 433.535C1463.18 418.643 1457.81 401.846 1457.81 383.144V314.05C1457.81 295.002 1463 277.685 1473.39 262.1C1483.78 246.169 1498.33 233.701 1517.03 224.696C1535.73 215.692 1556.86 211.189 1580.41 211.189C1603.96 211.189 1625.09 215.692 1643.79 224.696C1662.49 233.701 1677.04 246.169 1687.43 262.1C1697.82 277.685 1703.01 295.002 1703.01 314.05V383.144C1703.01 401.846 1697.64 418.643 1686.91 433.535C1676.17 448.081 1661.45 459.51 1642.75 467.822C1624.05 476.134 1603.27 480.29 1580.41 480.29ZM1580.41 418.989C1596.69 418.989 1609.33 415.353 1618.33 408.08C1627.34 400.807 1631.84 390.763 1631.84 377.949V317.687C1631.84 304.18 1627.17 293.27 1617.81 284.958C1608.81 276.646 1596.34 272.49 1580.41 272.49C1564.48 272.49 1551.84 276.646 1542.49 284.958C1533.48 293.27 1528.98 304.18 1528.98 317.687V377.949C1528.98 390.763 1533.48 400.807 1542.49 408.08C1551.49 415.353 1564.13 418.989 1580.41 418.989Z" fill="#DFFBFA"/>
<path d="M1168.26 475.615C1157.87 475.615 1148.86 472.325 1141.24 465.744C1133.62 458.818 1129.81 450.506 1129.81 440.808V146.771C1129.81 137.074 1133.45 128.935 1140.72 122.355C1148.34 115.428 1157.52 111.965 1168.26 111.965H1305.92C1340.56 111.965 1368.09 121.316 1388.52 140.018C1409.3 158.72 1419.69 183.829 1419.69 215.345C1419.69 229.545 1415.71 243.225 1407.74 256.386C1400.13 269.2 1389.91 279.417 1377.09 287.036V289.114C1394.76 295.348 1408.78 305.565 1419.17 319.765C1429.56 333.965 1434.76 349.723 1434.76 367.039C1434.76 388.166 1429.74 407.041 1419.69 423.665C1409.65 439.943 1395.62 452.757 1377.61 462.108C1359.6 471.113 1339 475.615 1315.79 475.615H1168.26ZM1304.88 262.1C1315.62 262.1 1324.62 257.944 1331.9 249.632C1339.52 240.974 1343.33 230.584 1343.33 218.462C1343.33 205.302 1339.86 195.085 1332.94 187.812C1326.01 180.193 1316.66 176.383 1304.88 176.383H1204.1V262.1H1304.88ZM1315.27 411.197C1328.43 411.197 1338.82 407.387 1346.44 399.768C1354.41 391.802 1358.39 381.239 1358.39 368.078C1358.39 354.571 1354.58 344.181 1346.96 336.908C1339.34 329.289 1328.78 325.479 1315.27 325.479H1204.1V411.197H1315.27Z" fill="#DFFBFA"/>
<path d="M933.475 480.29C916.504 480.29 900.573 477 885.681 470.42C871.135 463.493 859.359 453.623 850.355 440.808C841.35 427.648 836.848 411.89 836.848 393.534C836.848 375.178 841.696 359.42 851.394 346.259C861.091 332.752 873.905 322.536 889.837 315.609C906.114 308.682 923.777 305.219 942.826 305.219C958.757 305.219 972.784 307.643 984.905 312.492C997.373 317.341 1008.98 324.44 1019.71 333.791L1022.31 330.674C1015.04 324.094 1009.32 319.419 1005.17 316.648V309.894C1005.17 296.734 1000.32 286.344 990.62 278.724C981.269 270.759 967.935 266.776 950.618 266.776C935.38 266.776 921.873 269.547 910.097 275.088C898.322 280.629 888.798 288.768 881.525 299.504C873.213 297.426 866.113 293.617 860.225 288.075C854.684 282.188 851.913 275.781 851.913 268.854C851.913 258.118 856.589 248.42 865.94 239.762C875.291 230.757 887.932 223.831 903.863 218.982C920.141 213.787 937.977 211.189 957.372 211.189C995.122 211.189 1024.21 219.848 1044.65 237.164C1065.08 254.481 1075.3 278.032 1075.3 307.816V434.055C1075.3 450.333 1069.93 462.108 1059.19 469.381C1048.8 476.654 1032.18 480.29 1009.32 480.29V460.03C1014.52 455.181 1018.67 450.852 1021.79 447.042L1019.19 444.445C1007.76 456.22 995.815 465.225 983.347 471.459C970.879 477.347 954.255 480.29 933.475 480.29ZM953.216 429.379C969.84 429.379 982.827 426.262 992.178 420.028C1001.53 413.794 1006.2 404.79 1006.2 393.014C1006.2 381.585 1001.36 372.581 991.659 366C982.308 359.42 969.493 356.13 953.216 356.13C938.67 356.13 927.068 359.42 918.409 366C910.097 372.581 905.941 381.585 905.941 393.014C905.941 404.79 910.097 413.794 918.409 420.028C927.068 426.262 938.67 429.379 953.216 429.379Z" fill="#DFFBFA"/>
<path d="M668.149 584.19C647.023 584.19 628.321 581.247 612.043 575.359C595.766 569.818 583.124 562.198 574.12 552.501C565.461 542.804 561.132 532.067 561.132 520.292C561.132 507.824 565.461 498.992 574.12 493.797C583.124 488.602 595.766 486.005 612.043 486.005C615.507 514.058 634.209 528.085 668.149 528.085C687.544 528.085 701.051 523.236 708.67 513.539C716.636 504.188 720.619 491.027 720.619 474.057V460.55C726.506 456.394 730.316 452.93 732.048 450.159L729.97 447.562C720.965 456.22 708.843 462.974 693.605 467.822C678.712 472.671 665.205 475.096 653.084 475.096C634.035 475.096 616.719 471.113 601.134 463.147C585.895 455.181 573.773 444.099 564.769 429.899C556.11 415.353 551.781 399.075 551.781 381.066V305.738C551.781 288.422 556.284 272.664 565.288 258.464C574.639 243.918 586.934 232.489 602.173 224.177C617.411 215.519 633.343 211.189 649.967 211.189C669.015 211.189 685.12 214.999 698.28 222.618C711.787 229.891 723.909 240.801 734.645 255.347L737.243 253.269C735.511 250.152 732.221 245.65 727.372 239.762C727.372 220.714 749.191 211.189 792.829 211.189V463.147C792.829 486.351 787.461 507.131 776.725 525.487C765.988 544.189 751.096 558.562 732.048 568.606C712.999 578.996 691.7 584.19 668.149 584.19ZM672.305 414.314C686.851 414.314 698.8 410.851 708.151 403.924C717.502 396.651 722.177 387.993 722.177 377.949V308.336C722.177 297.946 717.502 289.288 708.151 282.361C698.8 275.434 686.851 271.971 672.305 271.971C656.374 271.971 644.079 275.434 635.421 282.361C627.109 288.941 622.953 298.465 622.953 310.933V375.871C622.953 387.993 627.109 397.517 635.421 404.443C643.733 411.024 656.028 414.314 672.305 414.314Z" fill="#DFFBFA"/>
<path d="M398.442 480.29C376.969 480.29 357.055 475.961 338.7 467.303C320.69 458.645 306.317 446.869 295.581 431.977C284.845 417.085 279.477 400.461 279.477 382.105V315.609C279.477 296.214 284.845 278.551 295.581 262.62C306.664 246.342 321.383 233.701 339.739 224.696C358.094 215.692 377.835 211.189 398.962 211.189C419.742 211.189 438.79 215.519 456.107 224.177C473.77 232.489 487.623 244.437 497.667 260.022C507.71 275.261 512.732 292.578 512.732 311.972V340.025C512.732 348.337 509.615 355.437 503.381 361.325C497.147 366.866 489.181 369.637 479.484 369.637H348.57V376.91C348.57 390.763 352.726 402.192 361.038 411.197C369.696 419.855 382.338 424.184 398.962 424.184C415.239 424.184 427.188 420.721 434.807 413.794C442.426 406.521 446.236 397.517 446.236 386.78C453.163 386.088 458.358 385.741 461.821 385.741C476.021 385.741 486.93 388.685 494.55 394.573C502.169 400.461 505.979 409.119 505.979 420.548C505.979 429.899 501.303 439.25 491.952 448.601C482.601 457.952 469.614 465.571 452.99 471.459C436.712 477.347 418.529 480.29 398.442 480.29ZM448.314 319.245V311.972C448.314 298.119 443.639 287.21 434.288 279.244C425.283 270.932 413.334 266.776 398.442 266.776C383.55 266.776 371.428 270.932 362.077 279.244C353.072 287.21 348.57 298.119 348.57 311.972V319.245H448.314Z" fill="#DFFBFA"/>
<path d="M40.0015 475.617C28.9188 475.617 19.3947 471.634 11.429 463.668C3.80967 455.702 0 446.178 0 435.096V162.358C0 143.656 6.234 129.803 18.702 120.798C31.17 111.793 50.3915 107.291 76.3665 107.291V409.64H210.398C227.714 409.64 240.875 415.355 249.88 426.784C259.231 437.866 263.906 454.144 263.906 475.617H40.0015Z" fill="#DFFBFA"/>
</g>
<defs>
<clipPath id="clip0_5_1172">
<rect width="1920" height="588" fill="white"/>
</clipPath>
</defs>
</svg>
